<?xml version="1.0" standalone="no"?>
<!DOCTYPE svg PUBLIC "-//W3C//DTD SVG 20010904//EN"
 "http://www.w3.org/TR/2001/REC-SVG-20010904/DTD/svg10.dtd">
<svg version="1.0" xmlns="http://www.w3.org/2000/svg"
 width="966.000000pt" height="966.000000pt" viewBox="0 0 966.000000 966.000000"
 preserveAspectRatio="xMidYMid meet">
<metadata>
Created by potrace 1.14, written by Peter Selinger 2001-2017
</metadata>
<g transform="translate(0.000000,966.000000) scale(0.100000,-0.100000)"
fill="#000000" stroke="none">
<path d="M1919 9656 c-2 -2 -22 -6 -44 -10 -63 -9 -92 -15 -122 -27 -16 -6
-30 -11 -33 -11 -65 -7 -246 -118 -321 -195 -105 -109 -194 -263 -214 -368 -1
-5 -3 -12 -4 -15 -3 -6 -9 -34 -19 -85 -9 -51 -9 -8164 0 -8225 9 -55 32 -145
49 -185 7 -16 13 -32 14 -35 10 -30 63 -123 90 -159 5 -7 38 -42 73 -77 102
-101 199 -159 403 -238 l66 -26 2979 0 c1639 0 2984 4 2989 8 6 5 42 19 80 31
80 26 211 89 264 129 43 31 160 148 181 181 8 13 22 33 30 45 41 57 91 188
117 306 4 19 9 1466 10 3215 l3 3180 -26 80 c-14 44 -31 89 -37 100 -12 23
-247 261 -1232 1246 -1041 1040 -1080 1079 -1115 1086 -17 3 -33 10 -36 14 -3
5 -13 9 -22 9 -9 0 -29 7 -44 14 -18 9 -28 11 -28 4 0 -7 -4 -7 -12 -1 -12 9
-4029 18 -4039 9z"/>
</g>
</svg>
